<svg width="25" height="24" fill="none" xmlns="http://www.w3.org/2000/svg"><g clip-path="url(#clip0_46_1204)" stroke="#591567" stroke-width="1.5" stroke-linejoin="round"><path d="M12.924 4.5a1.875 1.875 0 100-3.75 1.875 1.875 0 000 3.75zm-2.426 8.364c.136-.846.197-1.665-.024-2.23-.187-.487-.595-.76-1.087-.945L5.049 8.286c-.562-.188-1.088-.502-1.125-1.123a1.071 1.071 0 011.36-1.125s4.125 1.46 7.64 1.46c3.516 0 7.594-1.453 7.594-1.453.844-.234 1.406.422 1.406 1.115 0 .666-.515.9-1.125 1.122l-4.125 1.496c-.375.14-.984.422-1.218.852-.282.504-.235 1.384-.099 2.231l.277 1.389 1.753 7.683c.132.616-.295 1.192-.909 1.3-.614.108-1.116-.311-1.298-.907l-1.76-5.435c-.085-.26-.16-.524-.226-.79L12.924 15l-.248 1.015c-.079.323-.17.643-.272.96l-1.73 5.346c-.187.602-.68 1.02-1.293.912-.614-.107-1.05-.73-.913-1.3l1.753-7.68.277-1.389z"/></g><defs><clipPath id="clip0_46_1204"><path fill="#fff" transform="translate(.924)" d="M0 0h24v24H0z"/></clipPath></defs></svg>