<svg width="16" height="17" fill="none" xmlns="http://www.w3.org/2000/svg"><path d="M8 .47a8 8 0 100 16 8 8 0 000-16zm0 14.453A6.448 6.448 0 011.548 8.47 6.448 6.448 0 018 2.019a6.448 6.448 0 016.452 6.452A6.448 6.448 0 018 14.923zm3.463-3.26c-.31.313-1.469 1.335-3.357 1.335-2.659 0-4.532-1.982-4.532-4.567 0-2.553 1.945-4.497 4.509-4.497 1.791 0 2.862.859 3.148 1.122a.386.386 0 01.062.494l-.585.907a.387.387 0 01-.565.095c-.277-.22-1.026-.728-1.99-.728-1.559 0-2.514 1.14-2.514 2.584 0 1.341.868 2.7 2.525 2.7 1.054 0 1.834-.615 2.12-.879a.387.387 0 01.575.057l.641.876a.386.386 0 01-.037.5z" fill="#857885"/></svg>