<svg width="25" height="24" fill="none" xmlns="http://www.w3.org/2000/svg"><path d="M2.65 15.75h19.5a.75.75 0 00.75-.75V4.5a.75.75 0 00-.75-.75H2.65a.75.75 0 00-.75.75V15c0 .414.335.75.75.75z" stroke="#591567" stroke-width="1.538" stroke-linejoin="round"/><path d="M4.9 20.25h15M3.4 18h18-18zm9-4.5a3.75 3.75 0 100-7.5 3.75 3.75 0 000 7.5zM1.9 12a3.75 3.75 0 013.75 3.75M22.9 7.5a3.75 3.75 0 01-3.75-3.75L22.9 7.5zm-21 0a3.75 3.75 0 003.75-3.75L1.9 7.5zm21 4.5a3.75 3.75 0 00-3.75 3.75L22.9 12z" stroke="#591567" stroke-width="1.538" stroke-linecap="round" stroke-linejoin="round"/></svg>