<svg width="25" height="25" fill="none" xmlns="http://www.w3.org/2000/svg"><g clip-path="url(#clip0_46_1212)" stroke="#591567" stroke-width="1.519" stroke-linejoin="round"><path d="M8.25 15.948V2.278l1.5.76 1.5-.76 1.496.76 1.518-.76 1.485.76 1.49-.76 1.497.76 1.513-.76 1.5.76 1.5-.76v10.633"/><path d="M23.25 12.91v5.317a3.821 3.821 0 01-1.1 2.685 3.726 3.726 0 01-2.65 1.112v0c-.995 0-1.95-.4-2.652-1.112a3.821 3.821 0 01-1.099-2.685v-2.279H3a.738.738 0 00-.695.468.762.762 0 00-.055.292c0 3.038.316 5.316 3.75 5.316h13.5"/><path d="M14.25 10.632h6m-9-3.797h9-9z" stroke-linecap="round"/></g><defs><clipPath id="clip0_46_1212"><path fill="#fff" transform="translate(.75)" d="M0 0h24v24.302H0z"/></clipPath></defs></svg>