<svg width="67" height="32" fill="none" xmlns="http://www.w3.org/2000/svg"><path d="M7.8 11.296v-8.75c0-.324.033-.519.584-.519h7.42c1.297 0 2.01 1.102 2.529 3.176l.42 1.653h1.264c.227-4.698.421-6.74.421-6.74s-3.175.356-5.055.356H5.89L.801.31v1.361l1.717.324c1.2.227 1.49.486 1.588 1.588 0 0 .098 3.24.098 8.588 0 5.346-.098 8.555-.098 8.555 0 .972-.389 1.328-1.588 1.556l-1.717.324v1.36l5.088-.161h8.49c1.912 0 6.352.161 6.352.161.096-1.166.745-6.449.842-7.031h-1.199l-1.264 2.884c-1.004 2.268-2.462 2.43-4.083 2.43h-4.829c-1.62 0-2.398-.648-2.398-2.041v-7.389s3.532 0 4.763.097c.908.066 1.458.325 1.75 1.588l.39 1.685h1.392L16 11.944l.194-4.277H14.8l-.454 1.88c-.292 1.23-.486 1.458-1.75 1.587-1.425.162-4.796.13-4.796.13v.032zm19.217-7.842c-.454 2.009-.908 3.564-2.495 4.601-.973.648-1.945.875-2.333.907v1.232h2.884v9.948c0 2.787 1.847 4.148 4.31 4.148 1.912 0 3.888-.81 4.569-2.495l-.681-.875c-.324.551-1.36 1.36-2.657 1.36-1.425 0-2.203-.972-2.203-3.434v-8.781l4.796.356.259-2.204-5.055.195V3.486l-1.394-.032zm10.24 15.302l-1.231.032c.065.713.097 1.62.097 2.463 0 .875-.032 1.685-.097 2.074 0 0 2.463.906 4.958.906 3.37 0 6.06-1.62 6.06-4.796 0-5.443-8.166-4.633-8.166-8.295 0-1.523 1.36-2.107 2.852-2.107 1.166 0 2.138.422 2.333 1.038l.81 2.43 1.2-.064c.096-1.297.161-2.788.356-3.986-1.038-.454-3.209-.714-4.569-.714-3.176 0-5.736 1.394-5.736 4.505 0 5.411 7.971 4.31 7.971 8.296 0 1.425-.875 2.43-2.851 2.43-1.815 0-2.722-.94-3.078-1.88l-.909-2.332zm19.532 3.743c-1.876 5.241-4.173 6.599-6.243 6.599-.874 0-1.294-.389-1.424-1.002l-.485-2.524-1.359.065c-.258 1.488-.517 3.138-.872 4.496.808.614 2.166.938 3.234.938 2.233 0 5.629-.292 8.733-7.666l5.208-12.292c.421-1.002.582-1.1 1.812-1.585l.679-.258V8.138l-3.073.161-3.3-.161V9.27l.841.258c.84.26 1.23.582 1.23 1.165 0 .29-.098.582-.26 1.034-.485 1.23-3.493 8.54-4.3 10.093l.807-.291c-1.424-3.526-3.59-9.413-3.914-10.415a1.61 1.61 0 01-.097-.519c0-.517.356-.938 1.132-1.1l1.068-.225V8.138l-4.432.162-3.526-.162V9.27l.583.194c.808.259 1.002.485 1.488 1.617 2.684 6.146 3.946 9.51 5.66 13.91l.81-2.492z" fill="#999"/></svg>