<svg width="30" height="31" fill="none" xmlns="http://www.w3.org/2000/svg"><path d="M15.003 7.78a7.679 7.679 0 00-7.69 7.69 7.679 7.679 0 007.69 7.692 7.679 7.679 0 007.69-7.691 7.679 7.679 0 00-7.69-7.692zm0 12.691c-2.75 0-5-2.242-5-5s2.243-5 5-5c2.758 0 5 2.242 5 5s-2.249 5-5 5zm9.799-13.007a1.79 1.79 0 01-1.794 1.794 1.794 1.794 0 111.794-1.794zm5.093 1.821C29.78 6.882 29.232 4.753 27.472 3 25.718 1.246 23.59.697 21.187.576c-2.476-.14-9.898-.14-12.374 0-2.396.114-4.525.663-6.285 2.417C.768 4.747.226 6.875.105 9.279c-.14 2.476-.14 9.9 0 12.377.114 2.403.663 4.532 2.423 6.286 1.76 1.754 3.882 2.303 6.285 2.423 2.476.14 9.898.14 12.374 0 2.403-.113 4.531-.662 6.285-2.423 1.753-1.754 2.302-3.883 2.423-6.286.14-2.477.14-9.894 0-12.37zm-3.2 15.029a5.062 5.062 0 01-2.85 2.851c-1.975.784-6.66.603-8.842.603-2.181 0-6.873.174-8.84-.603a5.062 5.062 0 01-2.852-2.851c-.783-1.975-.602-6.661-.602-8.843 0-2.183-.174-6.875.602-8.843a5.062 5.062 0 012.851-2.852c1.975-.783 6.66-.603 8.841-.603 2.182 0 6.874-.174 8.841.603a5.062 5.062 0 012.851 2.852c.784 1.974.603 6.66.603 8.843 0 2.182.18 6.875-.602 8.843z" fill="#857885"/></svg>