<svg width="65" height="33" fill="none" xmlns="http://www.w3.org/2000/svg"><path fill-rule="evenodd" clip-rule="evenodd" d="M64.159 16.58c0 8.895-14.284 16.105-31.902 16.105-17.619 0-31.902-7.21-31.902-16.104C.355 7.687 14.638.477 32.257.477c17.618 0 31.902 7.21 31.902 16.104zM32.257 1.746c-16.928 0-30.652 6.642-30.652 14.836 0 8.193 13.724 14.836 30.652 14.836s30.65-6.643 30.65-14.836c0-8.194-13.722-14.836-30.65-14.836z" fill="#414B47"/><path fill-rule="evenodd" clip-rule="evenodd" d="M62.115 16.58c0 7.754-13.368 14.04-29.858 14.04-16.49 0-29.857-6.286-29.857-14.04 0-7.752 13.367-14.037 29.857-14.037s29.858 6.285 29.858 14.038zm-10.722-6.57h-5.121l-.624 1.792h3.315l-3.781 1.316-.25.727 5.818-1.918.643-1.917zm-32.65 3.146h-2.085s1.933-5.18 2.088-5.572c.276-.694.44-.646.44-.646h-2.88c.356.171.04.848.04.848s-2.308 6.46-2.469 6.783c-.16.323-.28.364-.28.364h4.989l.698-1.914c-.06.182-.54.137-.54.137zm8.753 1.768h2.35s-.162-.24-.06-.502c.138-.364 1.385-3.775 1.385-3.775l.542 4.277h2.129l2.79-7.608s.115-.357.27-.357l-2.262-.006s.065.262-.016.464c-.08.202-1.365 3.654-1.365 3.654l-.502-4.118h-2.43s.126.201.046.423l-2.576 7.107s-.16.441-.302.441zm10.744-7.97s.2.324-.061 1.07c-.261.748-2.31 6.3-2.31 6.3s-.16.521-.38.623l3.212-.004s3.895.145 5.1-3.971c0 0 1.527-4.058-2.891-4.017h-2.67zm.34 6.15s.011-.002.372-.002c.547 0 1.559-.122 2.24-1.787 1.117-2.737-.443-2.644-.443-2.644h-.602l-1.566 4.434zM10.006 21.37h5.121l.623-1.793h-3.314l3.78-1.315.251-.727-5.818 1.918-.643 1.917zm8.974 3.307c-.08 0-.08-.26-.08-.26l.941-2.513 1.254 2.476c.08.162.04.296.04.296h2.807c-.268 0-.544-.511-.544-.511L22 21.645c1.955 0 2.58-1.948 2.58-1.948.964-3.096-2.28-3.015-2.28-3.015h-3.32c.24.269.053.834.053.834s-2.061 5.926-2.222 6.384c-.16.457-.455.777-.455.777h2.624zm1.99-6.157l-.545 1.608h.51s.99.087 1.356-.705c0 0 .428-.907-.768-.907-.262 0-.553.004-.553.004zm27.054 6.186c-.201.004-.061-.49-.061-.49l.84-2.283 1.212 2.477c.081.161.041.296.041.296h2.907c-.268 0-.563-.512-.563-.512l-1.398-2.521c1.956 0 2.544-1.877 2.544-1.877 1.026-3.242-2.243-3.085-2.243-3.085h-3.294c.242.27.054.835.054.835s-2.147 5.948-2.309 6.405c-.16.459-.468.75-.468.75l2.738.005zm1.914-4.55s.983.075 1.284-.7c.355-.912-.531-.887-.531-.887h-.727l-.535 1.588h.509zM28.05 24.875c2.898 0 4.622-2.857 4.622-4.907 0-2.15-.88-3.492-2.887-3.492-2.561 0-4.232 1.954-4.664 4.383-.396 2.234.859 4.016 2.93 4.016zm.183-1.89c.722.134 1.517-.388 1.932-2.059.63-2.528-.53-2.549-.742-2.575-.641-.079-1.497.664-1.845 2.212-.16.707-.328 2.24.655 2.422zm5.127-6.274s.199.108.199.619v6.918s-.027.379-.17.458h2.153s0-.162.214-.431c.214-.27 4.685-6.298 4.685-6.298s1.02-1.265 1.287-1.265h-3.08s.24.161.053.457c-.187.296-2.926 4.415-2.926 4.415l.034-4.154s-.005-.666.261-.722l-2.71.003zm13.015 1.886l.696-1.887h-5.22s.187.166-.053.839c-.242.674-2.357 6.405-2.357 6.405s-.375.754-.481.754h5.38l.644-1.911s-.08.107-.59.107h-2.276l.483-1.292h1.766s.376-.026.456.081l.723-2.042s-.053.185-.536.185h-1.714l.51-1.426h2.168s.295-.041.401.188zm-27.217-3.665h2.575s-.008-.2.06-.329c.122-.233.442-.796.442-.796h2.592l.005.703s.013.242-.178.428h2.57s-.19-.107-.225-.425l-.323-7.025s-.013-.45.199-.544h-2.55s.179.222-.163.727c-.34.504-4.697 6.998-4.697 6.998s-.087.167-.307.263zm5.62-5.269l-1.432 2.341h1.452l-.02-2.341z" fill="#414B47"/></svg>