<svg width="33" height="33" fill="none" xmlns="http://www.w3.org/2000/svg"><g opacity=".4" clip-path="url(#clip0_19_537)"><path fill="#fff" style="mix-blend-mode:color-burn" d="M.073.886h32.564V32.3H.073z"/><path d="M.073 4.536c0-1.058.366-1.93 1.1-2.618C1.906 1.23 2.86.887 4.033.887c1.153 0 2.085.338 2.798 1.015.733.698 1.1 1.608 1.1 2.729 0 1.015-.357 1.861-1.069 2.538-.733.699-1.697 1.048-2.892 1.048h-.03c-1.153 0-2.085-.35-2.798-1.048C.43 6.471.073 5.593.073 4.536zM.48 32.3V11.104h6.98v21.197H.481zm10.844 0h6.978V20.465c0-.74.084-1.312.252-1.714a4.6 4.6 0 011.336-1.824c.597-.497 1.346-.746 2.247-.746 2.347 0 3.52 1.597 3.52 4.792V32.3h6.978V20.148c0-3.131-.733-5.506-2.2-7.124-1.467-1.618-3.405-2.428-5.815-2.428-2.703 0-4.809 1.175-6.318 3.523v.063h-.031l.031-.063v-3.015h-6.978c.042.677.063 2.782.063 6.315 0 3.532-.02 8.493-.063 14.882z" fill="#000"/></g><defs><clipPath id="clip0_19_537"><path fill="#fff" transform="translate(.073 .886)" d="M0 0h32.564v31.414H0z"/></clipPath></defs></svg>