<svg width="82" height="29" fill="none" xmlns="http://www.w3.org/2000/svg"><path d="M27.2 7.205l-3.114 7.543 1.308-7.543h-3.407l-2.165 16.034h3.677l7.197-16.034H27.2zm4.962 9.263h2.956l.857-2.845H33.02l1.06-3.529h3.023l.88-2.89h-6.452L26.703 23.24h6.34l1.127-3.044h-3.136l1.128-3.727zM12.9 26.523A10.43 10.43 0 018 25.31l-.87 1.757c1.723.9 3.686 1.41 5.77 1.41a12.39 12.39 0 009.708-4.659h-2.69a10.408 10.408 0 01-7.019 2.704zm2.185-6.078v1.657l4.17-3.13-4.036-3.708v1.604h-4.304l4.305-9.992v7.363l3.485 3.222L18.79.485h-3.814L1.042 28.614l4.627.088 3.739-8.257h5.676zm-11.201.905a10.13 10.13 0 01-1.366-5.092c0-5.16 3.852-9.43 8.869-10.155l1.017-2.054C5.807 4.307.54 9.674.54 16.26c0 2.642.848 5.088 2.29 7.087l1.052-1.996zm14.814 1.889v-3.03l-3.617 3.03h3.617zm51.436-7.61c.835 0 1.309-.484 1.444-.947l1.647-5.448c.316-1.059-.158-2.03-1.624-2.03h-6.205L60.567 23.24h3.407l2.053-6.837h1.128c.406 0 .451.287.36.551l-1.894 6.286h3.407l1.76-5.845c.36-1.146-.136-1.676-.655-1.764zm-.541-5.182l-.903 2.977c-.158.486-.451.618-.79.618h-1.173l1.286-4.257h1.06c.52 0 .655.243.52.662zM43.94 7.205l-1.873 6.197-.113-6.197h-2.91l-4.829 16.034h3.204l1.963-6.396.293 6.396h2.73l4.828-16.034H43.94zm34 2.89h2.977l.88-2.89H76.54c-.812 0-1.624.22-2.008 1.345l-1.872 6.22c-.339 1.169 0 1.94 1.421 1.94h1.805c.203 0 .203.089.158.221l-.79 2.713c-.135.397-.225.551-.857.551h-2.843l-.925 3.044h5.573c.7 0 1.444-.33 1.624-.97l1.873-6.22c.474-1.566-.293-2.228-1.512-2.228H76.36l.97-3.264c.113-.353.361-.463.61-.463zm-27.007 3.528l-.857 2.845h.7l-1.241 4.102h-1.151c-.451 0-.654-.176-.519-.64l2.82-9.35c.113-.398.294-.486.655-.486h3.316l.88-2.89H50.1c-1.083 0-1.828.31-2.189 1.5l-3.474 11.557c-.632 2.118.654 2.978 2.188 2.978h2.098l-.36 1.257 3.79-1.875 2.707-8.998h-3.926zm7.581 2.845h2.956l.857-2.845h-2.956l1.06-3.529h3.024l.88-2.89h-6.453L53.054 23.24h6.34l1.128-3.044h-3.136l1.128-3.727z" fill="#000"/></svg>