<svg width="34" height="33" fill="none" xmlns="http://www.w3.org/2000/svg"><g opacity=".4" clip-path="url(#clip0_19_539)"><path fill="#fff" style="mix-blend-mode:color-burn" d="M.636.345h32.497v32.497H.636z"/><path fill-rule="evenodd" clip-rule="evenodd" d="M3.886.345h25.997a3.25 3.25 0 013.25 3.25v25.997a3.25 3.25 0 01-3.25 3.25H3.886a3.25 3.25 0 01-3.25-3.25V3.595a3.25 3.25 0 013.25-3.25z" fill="#010101"/><path fill-rule="evenodd" clip-rule="evenodd" d="M21.041 30.242c.99 0 1.79-.795 1.79-1.776 0-.98-.8-1.776-1.79-1.776h-.27c.99 0 1.791.795 1.791 1.776s-.802 1.776-1.79 1.776h.27zm-.294-3.552h-.27c-.988 0-1.79.795-1.79 1.776s.802 1.776 1.79 1.776h.27c-.989 0-1.79-.795-1.79-1.776 0-.98.801-1.776 1.79-1.776z" fill="#C1C9CF"/><path d="M20.76 29.33c.48 0 .87-.387.87-.864a.867.867 0 00-.87-.863c-.481 0-.87.386-.87.863s.389.864.87.864z" fill="#010101"/><path fill-rule="evenodd" clip-rule="evenodd" d="M7.135 25.888v.9H8.19v3.43h1.055v-3.406h.858l.294-.924H7.135zm8.633 0v.9h1.055v3.43h1.055v-3.406h.858l.294-.924h-3.262zm-5.174.51c0-.282.23-.51.514-.51.285 0 .515.228.515.51 0 .283-.23.511-.515.511a.513.513 0 01-.514-.51zm0 .876h1.03v2.944h-1.03v-2.944zm1.471-1.386v4.33h1.03v-1.119l.32-.292 1.005 1.435h1.103l-1.447-2.092 1.3-1.265h-1.25l-1.03 1.022v-2.02h-1.03zm11.11 0v4.33h1.03v-1.119l.32-.292 1.005 1.435h1.104l-1.448-2.092 1.3-1.265h-1.25l-1.03 1.022v-2.02h-1.03z" fill="#fff"/><path fill-rule="evenodd" clip-rule="evenodd" d="M21.586 10.898a8.654 8.654 0 005.048 1.615v-3.62c-.357 0-.712-.038-1.06-.111v2.85a8.655 8.655 0 01-5.048-1.615v7.388a6.693 6.693 0 01-6.695 6.691 6.666 6.666 0 01-3.727-1.131 6.677 6.677 0 004.787 2.013 6.693 6.693 0 006.695-6.692v-7.388zm1.308-3.652a5.044 5.044 0 01-1.308-2.954v-.466H20.58a5.069 5.069 0 002.313 3.42zM12.442 20.129a3.062 3.062 0 013.367-4.77v-3.702a6.752 6.752 0 00-1.06-.061v2.88a3.062 3.062 0 00-2.307 5.652z" fill="#C1C9CF"/><path fill-rule="evenodd" clip-rule="evenodd" d="M20.527 10.017a8.655 8.655 0 005.047 1.614v-2.85a5.067 5.067 0 01-2.68-1.535 5.068 5.068 0 01-2.312-3.42h-2.639v14.46a3.062 3.062 0 01-5.5 1.843 3.06 3.06 0 012.307-5.652v-2.881a6.693 6.693 0 00-4.646 11.369 6.666 6.666 0 003.728 1.131 6.693 6.693 0 006.695-6.691v-7.388z" fill="#fff"/><path fill-rule="evenodd" clip-rule="evenodd" d="M25.573 8.782v-.77a5.049 5.049 0 01-2.68-.766 5.062 5.062 0 002.68 1.536zm-4.992-4.956a5.1 5.1 0 01-.055-.415v-.466h-3.644v14.46a3.062 3.062 0 01-4.44 2.724 3.062 3.062 0 005.5-1.843V3.826h2.64zm-5.832 7.77v-.82a6.693 6.693 0 00-7.614 6.63 6.684 6.684 0 002.969 5.559 6.693 6.693 0 014.646-11.369z" fill="#C1C9CF"/><path fill-rule="evenodd" clip-rule="evenodd" d="M20.772 30.242c.989 0 1.79-.795 1.79-1.776 0-.98-.801-1.776-1.79-1.776h-.025c-.988 0-1.79.795-1.79 1.776s.802 1.776 1.79 1.776h.025zm-.883-1.776c0-.477.39-.863.87-.863.481 0 .871.386.871.863s-.39.864-.87.864a.867.867 0 01-.871-.864z" fill="#fff"/></g><defs><clipPath id="clip0_19_539"><path fill="#fff" transform="translate(.636 .345)" d="M0 0h32.497v32.497H0z"/></clipPath></defs></svg>