<svg width="30" height="26" fill="none" xmlns="http://www.w3.org/2000/svg"><path d="M26.916 6.701c.02.274.02.547.02.82 0 8.34-6.187 17.95-17.494 17.95-3.484 0-6.72-1.035-9.442-2.832.495.058.97.078 1.485.078 2.874 0 5.52-.996 7.633-2.695-2.703-.06-4.968-1.875-5.749-4.375a7.64 7.64 0 001.161.097 6.34 6.34 0 001.619-.215c-2.818-.586-4.93-3.125-4.93-6.191V9.26c.818.469 1.77.761 2.778.8a6.348 6.348 0 01-2.74-5.253c0-1.172.304-2.246.837-3.184C5.12 5.451 9.67 7.951 14.772 8.225a7.304 7.304 0 01-.153-1.446c0-3.476 2.741-6.308 6.149-6.308a6.06 6.06 0 014.492 1.992A11.92 11.92 0 0029.162.939a6.265 6.265 0 01-2.703 3.477A12.08 12.08 0 0030 3.439a13.408 13.408 0 01-3.084 3.262z" fill="#857885"/></svg>